<svg xmlns="http://www.w3.org/2000/svg" width="74.803" height="89.483" viewBox="0 0 74.803 89.483">
  <g id="Group_3" data-name="Group 3" transform="translate(-28 -16.587)">
    <path id="Path_1" data-name="Path 1" d="M33.051,81.961Q17.5,72.865,1.963,63.788C.955,63.154.073,62.38.34,60.972a5.944,5.944,0,0,0,0-.951c0-3.476-1.059-7.612.431-10.257S6.334,45.888,9.3,44.124q10.58-6.343,21.211-12.61c.78-.463,1.44-1.269,2.791-1,0,3.628-.051,7.288,0,10.942.032,1.529-1.135,1.9-2.081,2.48-5.4,3.254-10.866,6.451-16.3,9.7-1.066.634-2.093,1.338-3.451,2.207L32.918,68.615Z" transform="translate(28.025 5.447)" fill="#312e4e"/>
    <path id="Path_2" data-name="Path 2" d="M52,109.471q11.786-6.889,23.577-13.79c2.537-1.484,5-3.057,7.51-4.567,1.186-.717,1.9-.634,1.9,1.04q-.086,4.9,0,9.806a2.328,2.328,0,0,1-1.319,2.277q-15.357,9.115-30.682,18.236a2.664,2.664,0,0,1-.92.171Z" transform="translate(9 -16.575)" fill="#ff5c00"/>
    <path id="Path_3" data-name="Path 3" d="M52.043,93.1,51.91,79.775A222.464,222.464,0,0,0,74.054,66.582c2.924-2.023,6.166-3.425,9.14-5.322,1.193-.768,1.732-.2,1.725,1.1V72.512a2.163,2.163,0,0,1-1.186,2.049Q67.882,83.8,52.043,93.1Z" transform="translate(9.033 -5.687)" fill="#ff5c00"/>
    <path id="Path_4" data-name="Path 4" d="M33.176,109.117l.076,13.175Q17.49,113.056,1.733,103.814a2.081,2.081,0,0,1-1.205-2c.038-3.869,0-7.732,0-12.09Z" transform="translate(27.824 -16.222)" fill="#312e4e"/>
    <path id="Path_5" data-name="Path 5" d="M95.6,0c6.146,0,6.146,0,6.153,6.108,0,6.419,0,6.419-6.4,6.426-5.994,0-5.994,0-5.994-5.912V6.305C89.36,0,89.36,0,95.6,0Z" transform="translate(-4.662 16.587)" fill="#ff5c00"/>
    <path id="Path_6" data-name="Path 6" d="M72.015,18.987c-5.075,0-5.075,0-5.075-5.17,0-5.468,0-5.468,5.423-5.468,5.2,0,5.2,0,5.2,5.075C77.565,18.987,77.565,18.987,72.015,18.987Z" transform="translate(3.537 13.534)" fill="#312e4e"/>
    <path id="Path_7" data-name="Path 7" d="M108.66,23.8c1.852.178,4.485-1.1,4.167,3.064-.412,5.461-.1,5.48-3.52,5.487-5.2,0-5.2,0-5.208-4.681C104.093,23.812,104.093,23.812,108.66,23.8Z" transform="translate(-10.052 7.904)" fill="#312e4e"/>
    <path id="Path_8" data-name="Path 8" d="M93.984,35.2c.634,2.467-.121,3.907-3.641,3.647-4.5-.33-4.523-.07-4.523-3.85,0-4.542,0-4.542,4.085-4.548S93.971,30.437,93.984,35.2Z" transform="translate(-3.367 5.453)" fill="#312e4e"/>
    <path id="Path_9" data-name="Path 9" d="M76.229,42.564c.717,2.588-.837,3.064-2.9,3.172s-3.216-.634-3.076-2.867c.1-1.579-.089-3.609,2.2-3.279C74.015,39.837,77.015,39.069,76.229,42.564Z" transform="translate(2.33 2.123)" fill="#ff5c00"/>
  </g>
</svg>
